<svg xmlns="http://www.w3.org/2000/svg" viewBox="0 0 710 710" width="128" height="128">
<g transform="translate(0,710) scale(0.1,-0.1)" fill="#f26922" stroke="none">
<path d="M434 5062 c-6 -5 -10 -143 -9 -387 l1 -380 30 -55 c16 -30 167 -270
334 -533 168 -263 310 -485 315 -494 10 -18 96 -153 150 -238 165 -258 471
-742 475 -750 10 -21 65 -90 90 -113 61 -56 146 -80 265 -77 211 7 224 18 500
460 33 52 90 141 126 198 65 101 245 383 264 414 6 9 60 95 122 192 366 576
434 695 501 881 94 258 138 504 138 756 l-1 129 -342 1 -343 2 -1 -137 c-2
-189 -7 -241 -29 -356 -6 -27 -12 -60 -14 -72 -17 -84 -72 -251 -124 -369 -43
-99 -69 -142 -313 -534 -118 -190 -228 -366 -244 -393 -204 -327 -249 -396
-257 -391 -16 10 -76 139 -97 209 -30 103 -33 120 -36 245 -5 172 28 307 118
486 51 101 79 190 93 289 64 472 -234 905 -690 1004 -70 16 -142 18 -546 19
-256 0 -470 -2 -476 -6z m888 -546 c50 -8 137 -58 179 -103 64 -70 94 -143 93
-233 0 -124 -47 -221 -142 -291 l-38 -28 -101 162 c-121 194 -143 237 -177
345 -38 120 -37 127 26 144 47 13 92 14 160 4z"/>
<path d="M4968 5065 c-2 -1 -23 -6 -47 -9 -59 -8 -119 -38 -159 -79 -18 -18
-84 -114 -146 -213 -215 -337 -271 -425 -286 -449 -14 -23 -135 -214 -389
-613 -309 -486 -375 -604 -440 -787 -18 -49 -37 -101 -42 -115 -12 -34 -57
-226 -64 -275 -23 -159 -31 -247 -30 -360 l0 -130 343 -1 342 -2 1 142 c0 77
2 155 4 171 2 17 7 55 10 85 22 191 131 532 205 640 9 14 20 33 23 42 3 10 62
106 130 215 139 222 541 868 576 926 12 20 27 35 32 31 15 -9 75 -133 94 -194
76 -245 53 -483 -71 -731 -151 -304 -145 -623 19 -897 117 -195 308 -341 527
-403 84 -23 93 -24 575 -26 275 -1 492 2 495 7 3 5 5 175 5 377 -1 273 -5 378
-14 406 -7 21 -44 87 -81 145 -38 59 -151 237 -252 396 -101 159 -218 343
-260 410 -120 188 -162 255 -174 276 -6 11 -18 28 -27 38 -10 10 -17 21 -17
25 0 5 -120 197 -255 407 -23 36 -86 135 -140 220 -54 85 -114 175 -132 200
-41 53 -100 96 -157 111 -37 11 -190 21 -198 14z m854 -2043 c97 -157 148
-274 163 -373 l7 -46 -45 -12 c-175 -49 -361 47 -425 219 -15 42 -19 74 -17
130 5 112 49 198 137 268 l42 33 48 -76 c27 -42 67 -107 90 -143z"/>
</g>
</svg>
