<svg version="1.2" xmlns="http://www.w3.org/2000/svg" viewBox="-112.0000000000001 -29 1214.9999999999998 196.0653104898071" width="401.2182741116751" height="65">
	<style>
		.s0 { fill: #cb4d0c } 
	</style>
	<g id="Layer 1">
		<path id="&lt;Compound Path&gt; copy" class="s0" d="m272.26 15.38v22.41h-3.78v-21.11c0-3.75-1.76-5.52-5.12-5.52-3.12 0-5.54 2.21-5.54 5.32v13.02h-3.77v-16.17c0-1.78-0.62-2.33-2.05-2.33-0.33 0-0.7 0.04-0.95 0.08v-3.08c0.41-0.12 1.07-0.16 1.68-0.16 2.59 0 4.27 1.19 4.8 3.51 1.31-1.97 3.69-3.67 6.81-3.67 4.8 0 7.92 3 7.92 7.7z"/>
		<path id="&lt;Compound Path&gt; copy 2" class="s0" d="m322.06 26.39v3.11c-0.54 0.2-1.52 0.28-2.38 0.28-4.43 0-6.57-2.52-6.57-7.26v-11.17h-8.53v18.15h-3.77v-18.15h-5.13v-3.19h26.33v3.19h-5.16v10.89c0 3.08 0.94 4.34 3.69 4.34 0.53 0 1.06-0.07 1.52-0.19z"/>
		<path id="&lt;Compound Path&gt; copy 3" class="s0" d="m353.85 26.55v3.07c-0.41 0.08-1.07 0.16-1.64 0.16-2.71 0-4.43-1.34-4.92-3.83-1.89 2.73-4.72 4.03-7.63 4.03-5.25 0-9.93-4.34-9.93-11.13 0-6.75 4.68-11.17 9.89-11.17 2.95 0 5.94 1.39 7.67 4.34l0.45-3.86h3.07v16.14c0 1.73 0.66 2.32 2.09 2.32q0.57-0.01 0.95-0.07zm-6.73-7.74c0-4.58-2.95-7.73-6.77-7.73-3.85 0-6.8 3.15-6.8 7.77 0 4.58 2.95 7.73 6.8 7.73 3.82 0 6.77-3.15 6.77-7.77z"/>
		<path id="&lt;Compound Path&gt; copy 4" class="s0" d="m362.47 20.03c0-7.65 4.06-12.35 10.7-12.35 6.19 0 10.79 4.74 10.79 11.17 0 6.31-4.39 11.13-10.05 11.13-3.2 0-6.19-1.62-7.63-4.11h-0.04v11.92h-3.77zm17.71-1.22c0-4.46-2.99-7.74-7.05-7.74-4.02 0-6.89 3.32-6.89 7.97 0 4.31 3.03 7.54 6.97 7.54 4.06 0 6.97-3.27 6.97-7.77z"/>
		<path id="&lt;Compound Path&gt; copy 5" class="s0" d="m416.28 26.55v3.07c-0.41 0.08-1.07 0.16-1.64 0.16-2.71 0-4.43-1.34-4.92-3.83-1.89 2.73-4.72 4.03-7.63 4.03-5.25 0-9.93-4.34-9.93-11.13 0-6.75 4.68-11.17 9.89-11.17 2.95 0 5.95 1.39 7.67 4.34l0.45-3.86h3.08v16.14c0 1.73 0.65 2.32 2.09 2.32q0.56-0.01 0.94-0.07zm-6.73-7.74c0-4.58-2.95-7.73-6.76-7.73-3.86 0-6.81 3.15-6.81 7.77 0 4.58 2.95 7.73 6.81 7.73 3.81 0 6.76-3.15 6.76-7.77zm-4.38-14.28h-2.67l2.71-8.88h3.61z"/>
		<path id="&lt;Compound Path&gt; copy 6" class="s0" d="m445.36 20.11c0 5.65-4.34 9.91-11.03 9.91-6.19 0-10.66-3.75-10.66-9.51 0-4.54 3.24-8.64 8.24-10.3-3.4-1.93-5.21-3.71-5.21-6.43 0-3.71 3.28-6.04 8.78-6.04 2.54 0 5.5 0.67 7.92 1.54l-0.05 3.39c-2.74-1.18-5.57-1.73-7.67-1.73-2.91 0-5.08 0.86-5.08 2.96 0 1.73 1.27 2.56 5.99 5.09 5.62 3.03 8.77 6.07 8.77 11.12zm-3.77-0.04c0-3.35-1.84-5.6-6.68-8.16-4.43 1.38-7.51 4.93-7.51 8.44 0 3.87 2.79 6.31 7.01 6.31 4.27 0 7.18-2.68 7.18-6.59z"/>
		<path id="&lt;Compound Path&gt; copy 7" class="s0" d="m453.45 18.85c0-6.43 4.76-11.17 11.07-11.17 6.28 0 10.99 4.74 10.99 11.17 0 6.39-4.71 11.13-10.99 11.13-6.31 0-11.07-4.7-11.07-11.13zm18.29 0c0-4.93-3.53-7.77-7.22-7.77-3.73 0-7.26 2.84-7.26 7.77 0 4.93 3.53 7.73 7.26 7.73 3.69 0 7.22-2.84 7.22-7.73z"/>
		<path id="&lt;Compound Path&gt; copy 8" class="s0" d="m508.17 11.35h-6.93c2.7 1.86 4.18 4.66 4.18 8.01 0 6.08-4.64 10.62-10.79 10.62-6.31 0-10.95-4.66-10.95-10.89 0-6.28 4.68-10.89 10.91-10.93h13.58zm-6.48 7.61c0-4.3-3-7.49-7.06-7.49-4.14 0-7.13 3.19-7.13 7.57 0 4.34 3.03 7.54 7.13 7.54 4.02 0 7.06-3.2 7.06-7.62z"/>
		<path id="&lt;Compound Path&gt; copy 9" class="s0" d="m535.32 15.38v22.41h-3.77v-21.11c0-3.75-1.76-5.52-5.13-5.52-3.11 0-5.53 2.21-5.53 5.32v13.02h-3.78v-16.17c0-1.78-0.61-2.33-2.05-2.33-0.33 0-0.7 0.04-0.94 0.08v-3.08c0.41-0.12 1.06-0.16 1.68-0.16 2.58 0 4.27 1.19 4.8 3.51 1.31-1.97 3.69-3.67 6.81-3.67 4.8 0 7.91 3 7.91 7.7z"/>
		<path id="&lt;Compound Path&gt; copy 10" class="s0" d="m584.1 26.55v3.07c-0.41 0.08-1.07 0.16-1.64 0.16-2.71 0-4.43-1.34-4.93-3.83-1.88 2.73-4.71 4.03-7.63 4.03-5.25 0-9.92-4.34-9.92-11.13 0-6.75 4.67-11.17 9.88-11.17 2.96 0 5.95 1.39 7.67 4.34l0.46-3.86h3.07v16.14c0 1.73 0.66 2.32 2.09 2.32q0.57-0.01 0.95-0.07zm-6.73-7.74c0-4.58-2.95-7.73-6.77-7.73-3.85 0-6.81 3.15-6.81 7.77 0 4.58 2.96 7.73 6.81 7.73 3.82 0 6.77-3.15 6.77-7.77z"/>
		<path id="&lt;Compound Path&gt; copy 11" class="s0" d="m608.18 29.5l-6.53-16.92h-0.08l-7.05 16.92h-4.02l9.35-21.03-1.97-4.85c-0.74-1.82-1.84-2.6-3.69-2.6-0.57 0-1.15 0.07-1.64 0.19v-3.08c0.74-0.19 1.6-0.27 2.38-0.27 3.03 0 4.96 1.3 6.11 4.18l11.03 27.46z"/>
		<path id="&lt;Compound Path&gt; copy 12" class="s0" d="m635.66 29.5l-6.52-16.92h-0.08l-7.06 16.92h-4.02l9.35-21.03-1.96-4.85c-0.74-1.82-1.85-2.6-3.7-2.6-0.57 0-1.14 0.07-1.64 0.19v-3.08c0.74-0.19 1.6-0.27 2.38-0.27 3.04 0 4.97 1.3 6.11 4.18l11.04 27.46z"/>
		<path id="&lt;Compound Path&gt; copy 13" class="s0" d="m647.56 22.44v-14.28h3.77v14c0 3.04 1.36 4.42 4.6 4.42q0.98-0.01 1.97-0.19v3.11c-0.87 0.2-1.73 0.28-2.67 0.28-4.72 0-7.67-2.25-7.67-7.34z"/>
		<path id="&lt;Compound Path&gt; copy 14" class="s0" d="m694.61 19.64c0 6.43-3.04 10.26-8.17 10.26-3.28 0-5.66-1.7-6.89-4.85-1.23 3.19-3.61 4.85-6.93 4.85-5.13 0-8.16-3.83-8.16-10.26 0-4.1 1.19-8.37 3.16-11.48h3.94c-2.1 3.23-3.33 7.49-3.33 11.52 0 4.5 1.56 6.87 4.64 6.87 2.99 0 4.8-2.45 4.8-6.71v-6.59h3.77v6.59c0 4.26 1.76 6.71 4.8 6.71 3.03 0 4.59-2.33 4.59-6.87 0-4.03-1.23-8.33-3.24-11.52h3.9c1.97 3.19 3.12 7.45 3.12 11.48zm-14.03-15.11h-2.67l2.71-8.88h3.61z"/>
		<path id="&lt;Compound Path&gt; copy 15" class="s0" d="m712.29 11.35v10.54c0 3.47 1.72 4.69 4.88 4.69 0.7 0 1.48-0.07 2.09-0.19v3.11c-0.74 0.2-1.8 0.28-2.83 0.28-5 0-7.92-2.29-7.92-7.42v-11.01h-7.13v-3.19h19.73v3.19z"/>
		<path id="&lt;Compound Path&gt; copy 16" class="s0" d="m730.63 1.92v-1.77h3.56v1.61c0 2.96-1.35 6.71-2.46 9.2h-2.83c0.86-2.68 1.73-5.8 1.73-9.04z"/>
		<path id="&lt;Compound Path&gt; copy 17" class="s0" d="m752.53 19.56l-4.76 5.29v4.65h-3.77v-21.34h3.77v12.31l11.2-12.31h4.39l-8.21 9.03 8.74 12.31h-4.43z"/>
		<path id="&lt;Compound Path&gt; copy 18" class="s0" d="m793.75 26.55v3.07c-0.41 0.08-1.06 0.16-1.64 0.16-2.7 0-4.43-1.34-4.92-3.83-1.88 2.73-4.71 4.03-7.63 4.03-5.25 0-9.92-4.34-9.92-11.13 0-6.75 4.67-11.17 9.88-11.17 2.96 0 5.95 1.39 7.67 4.34l0.45-3.86h3.08v16.14c0 1.73 0.66 2.32 2.09 2.32q0.57-0.01 0.94-0.07zm-6.72-7.74c0-4.58-2.96-7.73-6.77-7.73-3.86 0-6.81 3.15-6.81 7.77 0 4.58 2.95 7.73 6.81 7.73 3.81 0 6.77-3.15 6.77-7.77z"/>
		<path id="&lt;Compound Path&gt; copy 19" class="s0" d="m298.43 141.5h-9.88l-29.55-71.44h9.88l24.66 61.45 24.46-61.45h9.78z"/>
		<path id="&lt;Compound Path&gt; copy 20" class="s0" d="m358.32 70.06v71.44h-9.28v-71.44z"/>
		<path id="&lt;Compound Path&gt; copy 21" class="s0" d="m426.2 73.23v9.21c-5.19-3.55-11.78-5.56-17.57-5.56-7.58 0-14.17 3.55-14.17 10.65 0 6.25 5.19 9.22 15.37 13.64 11.28 4.8 20.37 9.41 20.37 21.13 0 13.05-11.18 20.74-24.66 20.74-8.69 0-16.27-3.27-20.76-6.63v-9.99c5.09 5 12.87 8.26 20.36 8.26 8.29 0 15.47-4.22 15.47-11.9 0-6.63-5.49-9.9-15.87-14.41-10.88-4.7-19.66-9.03-19.66-20.36 0-12.38 10.38-19.49 23.45-19.49 6.89 0 13.28 2.11 17.67 4.71z"/>
		<path id="&lt;Compound Path&gt; copy 22" class="s0" d="m464.53 70.06v71.44h-9.28v-71.44z"/>
		<path id="&lt;Compound Path&gt; copy 23" class="s0" d="m510.35 78.41h-23.46v-8.35h56.1v8.35h-23.35v63.09h-9.29z"/>
		<path id="&lt;Compound Path&gt; copy 24" class="s0" d="m646.51 141.5l-8.68-21.7h-31.85l-8.68 21.7h-9.79l29.15-71.44h10.48l29.35 71.44zm-37.53-29.67h25.75l-12.87-31.79z"/>
		<path id="&lt;Compound Path&gt; copy 25" class="s0" d="m707.7 134.39c6.09 0 10.18-1.05 14.58-3.16v-28.33h8.88v33.9c-6.99 3.84-14.27 6.14-23.56 6.14-19.56 0-36.63-14.59-36.63-37.07 0-22.56 16.77-37.25 36.83-37.25 7.89 0 15.47 1.92 21.36 5.18v9.51c-6.58-3.94-13.47-5.96-20.96-5.96-15.47 0-27.75 11.62-27.75 28.52 0 16.91 12.08 28.52 27.25 28.52z"/>
		<path id="&lt;Compound Path&gt; copy 26" class="s0" d="m767.5 70.06v71.44h-9.29v-71.44z"/>
		<path id="&lt;Compound Path&gt; copy 27" class="s0" d="m847.85 141.5l-8.68-21.7h-31.85l-8.68 21.7h-9.78l29.15-71.44h10.48l29.35 71.44zm-37.54-29.67h25.76l-12.88-31.79z"/>
		<path id="&lt;Compound Path&gt; copy 28" class="s0" d="m916.33 73.23v9.21c-5.19-3.55-11.78-5.56-17.57-5.56-7.58 0-14.17 3.55-14.17 10.65 0 6.25 5.19 9.22 15.37 13.64 11.28 4.8 20.36 9.41 20.36 21.13 0 13.05-11.18 20.74-24.65 20.74-8.69 0-16.27-3.27-20.76-6.63v-9.99c5.09 5 12.87 8.26 20.36 8.26 8.28 0 15.47-4.22 15.47-11.9 0-6.63-5.49-9.9-15.87-14.41-10.88-4.7-19.67-9.03-19.67-20.36 0-12.38 10.39-19.49 23.46-19.49 6.89 0 13.28 2.11 17.67 4.71z"/>
		<path id="&lt;Compound Path&gt; copy 29" class="s0" d="m940.59 105.78c0-21.03 15.67-37.16 36.93-37.16 21.17 0 36.84 16.13 36.84 37.16 0 21.22-15.67 37.16-36.84 37.16-21.26 0-36.93-15.84-36.93-37.16zm64.28 0c0-18.15-13.27-28.71-27.35-28.71-14.27 0-27.45 10.56-27.45 28.71 0 18.24 13.38 28.71 27.45 28.71 14.08 0 27.35-10.56 27.35-28.71z"/>
		<path id="&lt;Compound Path&gt; copy 30" class="s0" d="m1077.44 73.23v9.21c-5.19-3.55-11.78-5.56-17.57-5.56-7.58 0-14.17 3.55-14.17 10.65 0 6.25 5.19 9.22 15.37 13.64 11.28 4.8 20.37 9.41 20.37 21.13 0 13.05-11.18 20.74-24.66 20.74-8.68 0-16.27-3.27-20.76-6.63v-9.99c5.09 5 12.87 8.26 20.36 8.26 8.29 0 15.47-4.22 15.47-11.9 0-6.63-5.49-9.9-15.87-14.41-10.88-4.7-19.66-9.03-19.66-20.36 0-12.38 10.38-19.49 23.46-19.49 6.88 0 13.27 2.11 17.66 4.71z"/>
		<path id="&lt;Compound Path&gt; copy 31" class="s0" d="m73.1 16.9c1.98-10.13 1.22-21.77 1.22-21.77h-0.8-0.13-6.8-24.61-0.81-0.13v1.72 0.3 5.5c0 17.19-4.82 34.04-13.91 48.63l-33.58 53.9c-0.12 0.2-0.41 0.2-0.54 0l-0.12-0.2c-8.6-13.8-8.67-31.03-0.95-45.34 6.62-12.28 7.36-27.49 0.61-40.88-3.17-6.27-7.65-11.46-12.93-15.42-10.42-7.7-20.96-8.19-22.99-8.21h-11.2q-0.02 0-0.04 0 0 0 0 0h-32.03c-0.18 0-0.32 0.14-0.32 0.31v1.41 31.71c0 2.6 0.33 5.41 1.95 7.82l62.05 97.73c3.25 5.02 6.17 8.83 16.24 8.83 10.07 0 13-3.81 16.25-8.83l48.01-75.62c9.8-15.44 13.93-30.2 15.55-41.6zm-111.76 36.86c-0.15 0.08-0.34 0.03-0.43-0.11l-8.61-13.82c-3.16-5.08-5.25-10.73-6.19-16.59-0.02-0.15 0.06-0.3 0.2-0.36 8.27-3.55 18.02-0.1 22.13 8.05 4.18 8.3 0.98 18.4-7.1 22.83z"/>
		<path id="&lt;Compound Path&gt; copy 32" class="s0" d="m57.54 121.17c-1.98 10.13-1.21 21.77-1.21 21.77h0.79 0.14 6.79 24.62 0.8 0.14v-1.72-0.31-5.5c0-17.19 4.81-34.04 13.9-48.63l33.58-53.9c0.13-0.2 0.42-0.2 0.54 0l0.13 0.21c8.59 13.79 8.67 31.03 0.95 45.33-6.63 12.29-7.36 27.5-0.61 40.88 3.16 6.28 7.64 11.47 12.92 15.42 10.42 7.7 20.97 8.2 22.99 8.22h11.21q0.01-0.01 0.03-0.01 0 0 0 0.01h32.04c0.17 0 0.31-0.14 0.31-0.32v-1.4-31.71c0-2.61-0.32-5.42-1.95-7.83l-62.05-97.72c-3.24-5.02-6.17-8.83-16.24-8.83-10.07 0-12.99 3.81-16.24 8.83l-48.02 75.62c-9.8 15.44-13.93 30.2-15.55 41.59zm111.77-36.86c0.15-0.08 0.33-0.03 0.42 0.12l8.61 13.81c3.17 5.09 5.25 10.73 6.19 16.6 0.03 0.15-0.06 0.29-0.19 0.35-8.28 3.55-18.02 0.1-22.13-8.05-4.19-8.29-0.99-18.4 7.1-22.83z"/>
	</g>
</svg>